<svg xmlns="http://www.w3.org/2000/svg" width="234.768" height="53" viewBox="0 0 234.768 53"><defs><style>.a{fill:none;stroke:#bb9437;stroke-width:3px;}.a,.e{stroke-miterlimit:10;}.b{fill:#bb9437;}.c,.d,.e{fill:#113975;}.c,.e{stroke:#113975;stroke-width:0.5px;}</style></defs><g transform="translate(-5017.72 162.271)"><rect class="a" width="36.342" height="50" transform="translate(5019.22 -160.771)"/><path class="b" d="M463.282,462.638h-18.1v-2.832h8.808v-4.847h-8.808v-2.832h8.808V447.28H440.33v20.208h18.1V478H447.325v4.847h15.957Z" transform="translate(4585.585 -600.732)"/><rect class="b" width="3.429" height="3.429" transform="translate(5025.904 -120.311) rotate(-45)"/><rect class="b" width="3.429" height="3.429" transform="translate(5025.903 -127.991) rotate(-45)"/><rect class="b" width="3.429" height="3.429" transform="translate(5044.031 -143.351) rotate(-45)"/><rect class="b" width="3.429" height="3.429" transform="translate(5044.03 -151.029) rotate(-45)"/><rect class="c" width="1.533" height="1.533" transform="translate(5108.48 -154.119) rotate(-45)"/><path class="d" d="M692.009,563.926a5.928,5.928,0,0,1-2.368,5.027,9.712,9.712,0,0,1-5.974,1.648q-4.371,0-6.581-2.5a7.229,7.229,0,0,1-.658-8.2l3.158-.658A7.317,7.317,0,0,0,678.533,563a4.1,4.1,0,0,0,1.316,3.242,5.669,5.669,0,0,0,3.814,1.186q4.474,0,4.9-2.792a2.86,2.86,0,0,1-1.552.37,4.67,4.67,0,0,1-3.869-1.842,5.784,5.784,0,0,1-1.186-3.659,6.331,6.331,0,0,1,1.581-4.554,4.831,4.831,0,0,1,3.684-1.474,4.611,4.611,0,0,1,3.659,1.5,4.936,4.936,0,0,1,1.131,3.37Zm-6.79-12.319a1.717,1.717,0,0,1-1.264-.473,1.749,1.749,0,0,1-.473-1.291,1.526,1.526,0,0,1,1.737-1.716,1.591,1.591,0,0,1,1.716,1.716,1.538,1.538,0,0,1-1.716,1.758Zm3.474,6.686q0-1.735-1.474-1.737a1.728,1.728,0,0,0-1.488.763,3.545,3.545,0,0,0-.54,2.08q0,2.79,2,2.79a1.749,1.749,0,0,0,1.5-.572Zm.572-6.686a1.717,1.717,0,0,1-1.264-.473,1.742,1.742,0,0,1-.473-1.291,1.526,1.526,0,0,1,1.737-1.716,1.592,1.592,0,0,1,1.716,1.716,1.531,1.531,0,0,1-1.709,1.758Z" transform="translate(4395.3 -682.344)"/><path class="d" d="M794.9,585.127v3.185H791.66a5.008,5.008,0,0,1-2.1,3.791,6.066,6.066,0,0,1-3.682,1.157,6.5,6.5,0,0,1-3.242-.894v-2.872a5.66,5.66,0,0,0,2.841.816,3.324,3.324,0,0,0,1.962-.6,2.006,2.006,0,0,0,.934-1.447c-.141-.017-.36-.036-.66-.053l-.683-.078A5.916,5.916,0,0,1,782.848,586a5.836,5.836,0,0,1-1.238-3.764,6.419,6.419,0,0,1,1.579-4.577,4.841,4.841,0,0,1,3.686-1.474,4.609,4.609,0,0,1,3.658,1.5,4.919,4.919,0,0,1,1.133,3.37v4.077ZM788.374,581q0-1.735-1.5-1.737-2,0-2,2.86,0,2.552,2.315,2.841a8.837,8.837,0,0,0,1.186.132Z" transform="translate(4309.385 -705.052)"/><path class="d" d="M843,590.206v-3.185h2.79a1.977,1.977,0,0,0,1.436-.435,2.013,2.013,0,0,0,.433-1.461v-3.474l3.316-1.737v5.212a2.057,2.057,0,0,0,.421,1.461,1.939,1.939,0,0,0,1.423.435h1.789a1.923,1.923,0,0,0,1.423-.435,2.073,2.073,0,0,0,.419-1.461v-4.159l3.318-1.762v5.912a2.018,2.018,0,0,0,.433,1.461,1.966,1.966,0,0,0,1.434.435h1.791a1.919,1.919,0,0,0,1.421-.435,2.053,2.053,0,0,0,.422-1.461v-4.859l3.316-1.737v6.766a4.825,4.825,0,0,1-1.421,3.684,4.694,4.694,0,0,1-3.263,1.238h-2.594a4.471,4.471,0,0,1-3.184-1.158,4.14,4.14,0,0,1-3,1.158h-2.614a4.959,4.959,0,0,0-6.369,0Z" transform="translate(4259.703 -706.946)"/><path class="d" d="M1055.892,569.881h1.842v3.185h-2.159a4.825,4.825,0,0,1-3.185-1.026,4.917,4.917,0,0,1-3.211,1.026h-9.4a4.325,4.325,0,0,1-3.5-1.5,5.019,5.019,0,0,1-1.133-3.395v-2.685l3.292-1.737v4.207a2.063,2.063,0,0,0,.433,1.487,1.97,1.97,0,0,0,1.436.435h8.581a1.884,1.884,0,0,0,1.422-.448,2.126,2.126,0,0,0,.419-1.474v-4.838l3.316-1.737v6.606a2.056,2.056,0,0,0,.422,1.461A1.934,1.934,0,0,0,1055.892,569.881Zm-13.581-9.054a1.685,1.685,0,0,1-1.264-.486,1.753,1.753,0,0,1-.473-1.278,1.671,1.671,0,0,1,.473-1.238,1.716,1.716,0,0,1,1.264-.473,1.592,1.592,0,0,1,1.716,1.716A1.538,1.538,0,0,1,1042.311,560.827Zm4.052,0a1.715,1.715,0,0,1-1.262-.473,1.741,1.741,0,0,1-.475-1.291,1.526,1.526,0,0,1,1.737-1.716,1.59,1.59,0,0,1,1.716,1.716q-.006,1.766-1.707,1.764Z" transform="translate(4104.194 -689.806)"/><path class="d" d="M1154.669,560.671h2.371v3.185h-2.685a5.455,5.455,0,0,0-6.369,0H1145.3v-3.185h2.368a1.921,1.921,0,0,0,1.421-.435,2.075,2.075,0,0,0,.421-1.461v-4.868l3.316-1.737v6.606a2.057,2.057,0,0,0,.421,1.461A1.925,1.925,0,0,0,1154.669,560.671Zm-4.21-11.159a1.7,1.7,0,0,1-1.263-.475,1.737,1.737,0,0,1-.475-1.289,1.673,1.673,0,0,1,.475-1.238,1.716,1.716,0,0,1,2.973,1.238,1.535,1.535,0,0,1-1.711,1.764Z" transform="translate(4015.05 -680.596)"/><path class="d" d="M1215.311,585.119h2.342V588.3h-2.685a4.8,4.8,0,0,1-3.1-.974,4.9,4.9,0,0,1-3.738,1.5,4.8,4.8,0,0,1-3.738-1.5,4.963,4.963,0,0,1-3.133.974h-2.685v-3.185h2.37a1.927,1.927,0,0,0,1.422-.435,2.061,2.061,0,0,0,.422-1.461v-.763a6.727,6.727,0,0,1,1.606-4.79,5.347,5.347,0,0,1,7.843.448,7.181,7.181,0,0,1,1.211,4.342v.763a2.02,2.02,0,0,0,.433,1.461A1.982,1.982,0,0,0,1215.311,585.119Zm-7.186.526q2,0,2-3.263,0-3.133-2-3.133t-2.027,3.133Q1206.1,585.648,1208.125,585.646Z" transform="translate(3971.938 -705.044)"/><path class="d" d="M1299.731,587.021h2.369v3.185h-2.685a5.455,5.455,0,0,0-6.369,0h-2.685v-3.185h2.368a1.923,1.923,0,0,0,1.423-.435,2.073,2.073,0,0,0,.419-1.461v-4.868l3.316-1.737v6.606a2.058,2.058,0,0,0,.421,1.461A1.939,1.939,0,0,0,1299.731,587.021Zm-3.337,5.58a1.593,1.593,0,0,1,1.716,1.716,1.538,1.538,0,0,1-1.716,1.764,1.715,1.715,0,0,1-1.264-.473,1.753,1.753,0,0,1-.473-1.291,1.673,1.673,0,0,1,.473-1.236A1.716,1.716,0,0,1,1296.394,592.6Z" transform="translate(3897.651 -706.946)"/><path class="d" d="M1343.707,596.075a1.716,1.716,0,0,1-1.264-.473,1.752,1.752,0,0,1-.473-1.291,1.526,1.526,0,0,1,1.737-1.716,1.591,1.591,0,0,1,1.716,1.716A1.54,1.54,0,0,1,1343.707,596.075Zm-1.421-5.87v-3.185h2.369a1.918,1.918,0,0,0,1.42-.435,2.081,2.081,0,0,0,.421-1.461v-4.868l3.316-1.737v6.766a4.567,4.567,0,0,1-4.844,4.922Zm5.473,5.87a1.717,1.717,0,0,1-1.262-.473,1.744,1.744,0,0,1-.473-1.291,1.525,1.525,0,0,1,1.735-1.716,1.592,1.592,0,0,1,1.716,1.716A1.54,1.54,0,0,1,1347.76,596.075Z" transform="translate(3855.885 -706.946)"/><path class="d" d="M1417.055,585.127v3.185h-3.242a5.008,5.008,0,0,1-2.1,3.791,6.066,6.066,0,0,1-3.686,1.157,6.5,6.5,0,0,1-3.242-.894v-2.872a5.664,5.664,0,0,0,2.841.816,3.32,3.32,0,0,0,1.962-.6,2,2,0,0,0,.934-1.447c-.141-.017-.361-.036-.658-.053l-.685-.078a5.949,5.949,0,0,1-4.2-2.132,5.849,5.849,0,0,1-1.238-3.764,6.413,6.413,0,0,1,1.581-4.577,4.836,4.836,0,0,1,3.684-1.474,4.609,4.609,0,0,1,3.657,1.5,4.919,4.919,0,0,1,1.133,3.37v4.077ZM1410.528,581q0-1.735-1.5-1.737-2,0-2,2.86,0,2.552,2.317,2.841a8.754,8.754,0,0,0,1.184.132Z" transform="translate(3805.884 -705.052)"/><path class="d" d="M1471.416,556.172a7.025,7.025,0,0,1,3.474,1.184,5.943,5.943,0,0,1,2.685,5.238v.343a4.767,4.767,0,0,1-1.474,3.711,4.89,4.89,0,0,1-3.343,1.131h-7.528V564.6h7.185a1.619,1.619,0,0,0,1.844-1.815v-.158a2.86,2.86,0,0,0-1.093-2.317,4.388,4.388,0,0,0-2.86-.894,8.311,8.311,0,0,0-2.79.526v-3.179l5.339-5.948h3.343Z" transform="translate(3756.128 -684.52)"/><path class="d" d="M1550.67,567.739V552.522l3.316-1.762v16.972Z" transform="translate(3686.98 -684.479)"/><path class="e" d="M676.44,426.11v3.69H681.4v2.348H676.44v3.9h5.589v2.391H673.48V423.7h8.541v2.4Z" transform="translate(4396.896 -581.649)"/><path class="e" d="M740.784,440.256l-2.235-2.679a7.822,7.822,0,0,1-1.9.233,7.627,7.627,0,0,1-3.8-.971,7.235,7.235,0,0,1-2.742-2.689,7.943,7.943,0,0,1,0-7.761,7.234,7.234,0,0,1,2.742-2.689,7.929,7.929,0,0,1,7.6,0,7.175,7.175,0,0,1,2.719,2.689,7.549,7.549,0,0,1,1,3.871,7.679,7.679,0,0,1-.833,3.581,7.211,7.211,0,0,1-2.267,2.626l3.375,3.8Zm-8.08-7.4a4.112,4.112,0,0,0,1.592,1.716,4.561,4.561,0,0,0,2.355.606,4.5,4.5,0,0,0,2.346-.6,4.115,4.115,0,0,0,1.583-1.716,5.639,5.639,0,0,0,.572-2.593,5.578,5.578,0,0,0-.572-2.584,4.06,4.06,0,0,0-1.583-1.7,4.548,4.548,0,0,0-2.34-.591,4.613,4.613,0,0,0-2.353.591,4.056,4.056,0,0,0-1.592,1.7,5.578,5.578,0,0,0-.572,2.584,5.645,5.645,0,0,0,.564,2.592Z" transform="translate(4351.882 -580.864)"/><path class="e" d="M823.222,423.84v9.111a3.126,3.126,0,0,0,.78,2.288,2.938,2.938,0,0,0,2.195.79,2.973,2.973,0,0,0,2.214-.79,3.121,3.121,0,0,0,.78-2.288V423.84h2.973v9.09a5.873,5.873,0,0,1-.81,3.173,5.162,5.162,0,0,1-2.164,1.951,6.879,6.879,0,0,1-3.026.654,6.691,6.691,0,0,1-2.982-.654,4.983,4.983,0,0,1-2.121-1.951,6.024,6.024,0,0,1-.78-3.173v-9.09Z" transform="translate(4278.09 -581.762)"/><path class="e" d="M901.042,423.84v14.714H898.09V423.84Z" transform="translate(4215.118 -581.762)"/><path class="e" d="M939.555,430.6a4.1,4.1,0,0,1-1.751,1.667,6.339,6.339,0,0,1-3,.631h-2.468v5.646H929.38V423.829H934.8a6.538,6.538,0,0,1,2.91.591,4.108,4.108,0,0,1,1.8,1.623A4.767,4.767,0,0,1,939.555,430.6Zm-3.068-.637a2.069,2.069,0,0,0,.591-1.571q0-2.151-2.4-2.151h-2.34v4.275h2.34A2.573,2.573,0,0,0,936.487,429.961Z" transform="translate(4189.795 -581.751)"/><path class="e" d="M1013.219,423.84v14.714h-2.952v-9.573l-3.943,9.573h-2.235l-3.964-9.573v9.573H997.17V423.84h3.354l4.682,10.946,4.682-10.946Z" transform="translate(4134.932 -581.762)"/><path class="e" d="M1100.1,426.11v3.69h4.958v2.348H1100.1v3.9h5.589v2.391h-8.541V423.7h8.541v2.4Z" transform="translate(4054.017 -581.649)"/><path class="e" d="M1169.13,438.441h-2.952l-6.686-10.107v10.107h-2.952V423.7h2.948l6.686,10.122V423.706h2.952Z" transform="translate(4005.952 -581.649)"/><path class="e" d="M1245.077,423.84v2.384h-3.923v12.33H1238.2v-12.33h-3.923V423.84Z" transform="translate(3943.037 -581.762)"/><path class="e" d="M1330.309,437.205a4.538,4.538,0,0,1-1.951-1.526,3.989,3.989,0,0,1-.738-2.342h3.164a2.036,2.036,0,0,0,.642,1.434,2.246,2.246,0,0,0,1.592.528,2.49,2.49,0,0,0,1.623-.5,1.607,1.607,0,0,0,.591-1.3,1.5,1.5,0,0,0-.4-1.076,2.8,2.8,0,0,0-1-.664,16.464,16.464,0,0,0-1.657-.538,18.222,18.222,0,0,1-2.33-.833,4.079,4.079,0,0,1-1.539-1.245,3.55,3.55,0,0,1-.643-2.225,3.969,3.969,0,0,1,.654-2.277,4.159,4.159,0,0,1,1.835-1.487,6.7,6.7,0,0,1,2.7-.517,5.826,5.826,0,0,1,3.7,1.108,4.152,4.152,0,0,1,1.571,3.089h-3.242a1.692,1.692,0,0,0-.642-1.255,2.429,2.429,0,0,0-1.592-.5,2.053,2.053,0,0,0-1.383.444,1.6,1.6,0,0,0-.515,1.285,1.335,1.335,0,0,0,.382.98,2.922,2.922,0,0,0,.97.633,17.006,17.006,0,0,0,1.635.559,17.178,17.178,0,0,1,2.339.845,4.2,4.2,0,0,1,1.562,1.264,3.534,3.534,0,0,1,.654,2.214,4.171,4.171,0,0,1-.613,2.195,4.34,4.34,0,0,1-1.792,1.613,6.119,6.119,0,0,1-2.805.6A6.964,6.964,0,0,1,1330.309,437.205Z" transform="translate(3867.497 -580.795)"/><path class="e" d="M1397.5,436.839a7.237,7.237,0,0,1-2.742-2.689,7.943,7.943,0,0,1,0-7.761,7.238,7.238,0,0,1,2.742-2.689,7.925,7.925,0,0,1,7.6,0,7.183,7.183,0,0,1,2.721,2.689,8.023,8.023,0,0,1,0,7.761,7.165,7.165,0,0,1-2.731,2.689A7.908,7.908,0,0,1,1397.5,436.839Zm6.136-2.267a4.113,4.113,0,0,0,1.581-1.716,5.636,5.636,0,0,0,.572-2.594,5.576,5.576,0,0,0-.572-2.584,4.054,4.054,0,0,0-1.581-1.7,4.552,4.552,0,0,0-2.342-.591,4.612,4.612,0,0,0-2.351.591,4.035,4.035,0,0,0-1.592,1.7,5.578,5.578,0,0,0-.572,2.584,5.644,5.644,0,0,0,.572,2.594,4.088,4.088,0,0,0,1.592,1.716,4.56,4.56,0,0,0,2.351.6A4.5,4.5,0,0,0,1403.641,434.572Z" transform="translate(3813.977 -580.864)"/><path class="e" d="M1487.588,423.84v9.111a3.125,3.125,0,0,0,.78,2.288,2.934,2.934,0,0,0,2.193.79,2.975,2.975,0,0,0,2.214-.79,3.13,3.13,0,0,0,.782-2.288V423.84h2.967v9.09a5.863,5.863,0,0,1-.812,3.173,5.148,5.148,0,0,1-2.172,1.951,6.884,6.884,0,0,1-3.026.654,6.7,6.7,0,0,1-2.984-.654,4.99,4.99,0,0,1-2.119-1.951,6.024,6.024,0,0,1-.78-3.173v-9.09Z" transform="translate(3740.427 -581.762)"/><path class="e" d="M1570.826,438.554,1565.472,432v6.552h-2.952V423.84h2.952v6.6l5.357-6.6h3.566l-6.076,7.3,6.241,7.416Z" transform="translate(3677.39 -581.762)"/></g></svg>